<?xml version="1.0" encoding="UTF-8" standalone="no"?>
<!-- Created with Inkscape (http://www.inkscape.org/) -->

<svg
   xmlns:dc="http://purl.org/dc/elements/1.1/"
   xmlns:cc="http://creativecommons.org/ns#"
   xmlns:rdf="http://www.w3.org/1999/02/22-rdf-syntax-ns#"
   xmlns:svg="http://www.w3.org/2000/svg"
   xmlns="http://www.w3.org/2000/svg"
   xmlns:sodipodi="http://sodipodi.sourceforge.net/DTD/sodipodi-0.dtd"
   xmlns:inkscape="http://www.inkscape.org/namespaces/inkscape"
   width="164"
   height="68"
   viewBox="0 0 164 68.000001"
   id="svg4368"
   version="1.1"
   inkscape:version="0.91 r13725"
   sodipodi:docname="logo.svg">
  <defs
     id="defs4370">
    <clipPath
       clipPathUnits="userSpaceOnUse"
       id="clipPath100">
      <path
         d="m 0,595.28 841.89,0 L 841.89,0 0,0 0,595.28 Z"
         id="path102"
         inkscape:connector-curvature="0" />
    </clipPath>
    <linearGradient
       x1="0"
       y1="0"
       x2="1"
       y2="0"
       gradientUnits="userSpaceOnUse"
       gradientTransform="matrix(110.5593,-86.378387,-86.378387,-110.5593,153.84521,343.54346)"
       spreadMethod="pad"
       id="linearGradient86">
      <stop
         style="stop-opacity:1;stop-color:#f6a64c"
         offset="0"
         id="stop88" />
      <stop
         style="stop-opacity:1;stop-color:#c63123"
         offset="0.55672468"
         id="stop90" />
      <stop
         style="stop-opacity:1;stop-color:#c63123"
         offset="1"
         id="stop92" />
    </linearGradient>
    <clipPath
       clipPathUnits="userSpaceOnUse"
       id="clipPath66">
      <path
         d="m 0,595.28 841.89,0 L 841.89,0 0,0 0,595.28 Z"
         id="path68"
         inkscape:connector-curvature="0" />
    </clipPath>
    <linearGradient
       x1="0"
       y1="0"
       x2="1"
       y2="0"
       gradientUnits="userSpaceOnUse"
       gradientTransform="matrix(127.56236,-46.428894,-46.428894,-127.56235,136.07959,338.84814)"
       spreadMethod="pad"
       id="linearGradient54">
      <stop
         style="stop-opacity:1;stop-color:#bcbcba"
         offset="0"
         id="stop56" />
      <stop
         style="stop-opacity:1;stop-color:#383738"
         offset="1"
         id="stop58" />
    </linearGradient>
    <clipPath
       clipPathUnits="userSpaceOnUse"
       id="clipPath34">
      <path
         d="m 0,595.28 841.89,0 L 841.89,0 0,0 0,595.28 Z"
         id="path36"
         inkscape:connector-curvature="0" />
    </clipPath>
  </defs>
  <sodipodi:namedview
     id="base"
     pagecolor="#ffffff"
     bordercolor="#666666"
     borderopacity="1.0"
     inkscape:pageopacity="0.0"
     inkscape:pageshadow="2"
     inkscape:zoom="3.959798"
     inkscape:cx="107.02481"
     inkscape:cy="48.577059"
     inkscape:document-units="px"
     inkscape:current-layer="layer1"
     showgrid="false"
     units="px"
     inkscape:window-width="1920"
     inkscape:window-height="1017"
     inkscape:window-x="-4"
     inkscape:window-y="-4"
     inkscape:window-maximized="1" />
  <metadata
     id="metadata4373">
    <rdf:RDF>
      <cc:Work
         rdf:about="">
        <dc:format>image/svg+xml</dc:format>
        <dc:type
           rdf:resource="http://purl.org/dc/dcmitype/StillImage" />
        <dc:title></dc:title>
      </cc:Work>
    </rdf:RDF>
  </metadata>
  <g
     inkscape:label="Vrstva 1"
     inkscape:groupmode="layer"
     id="layer1"
     transform="translate(0,-984.36216)">
    <g
       transform="matrix(0.38404232,0,0,-0.38404232,-41.881073,1145.0522)"
       id="g30">
      <g
         id="g32"
         clip-path="url(#clipPath34)">
        <g
           id="g38"
           transform="translate(272.9199,315.6338)">
          <path
             d="m 0,0 c 0,40.313 -32.746,73.058 -73.059,73.058 -40.313,0 -73.058,-32.745 -73.058,-73.058 0,-40.313 32.745,-73.059 73.058,-73.059 C -32.746,-73.059 0,-40.313 0,0"
             style="fill:#a8a9a7;fill-opacity:1;fill-rule:nonzero;stroke:none"
             id="path40"
             inkscape:connector-curvature="0" />
        </g>
      </g>
    </g>
    <g
       transform="matrix(0.38404232,0,0,-0.38404232,-41.881073,1145.0522)"
       id="g42">
      <g
         id="g44">
        <g
           id="g50">
          <g
             id="g52">
            <path
               d="m 131.997,315.634 c 0,-37.448 30.418,-67.866 67.864,-67.866 l 0,0 c 37.446,0 67.864,30.418 67.864,67.866 l 0,0 c 0,37.446 -30.418,67.863 -67.864,67.863 l 0,0 c -37.446,0 -67.864,-30.417 -67.864,-67.863"
               style="fill:url(#linearGradient54);stroke:none"
               id="path60"
               inkscape:connector-curvature="0" />
          </g>
        </g>
      </g>
    </g>
    <g
       transform="matrix(0.38404232,0,0,-0.38404232,-41.881073,1145.0522)"
       id="g62">
      <g
         id="g64"
         clip-path="url(#clipPath66)">
        <g
           id="g70"
           transform="translate(199.8618,417.5552)">
          <path
             d="m 0,0 c 6.89,-18.535 14.812,-36.675 23.727,-54.326 8.915,-17.65 18.812,-34.793 29.64,-51.338 10.828,-16.546 22.578,-32.477 35.184,-47.711 -19.497,3.301 -39.167,5.51 -58.91,6.615 -19.743,1.105 -39.538,1.105 -59.281,0 -19.743,-1.105 -39.415,-3.314 -58.911,-6.615 12.607,15.235 24.355,31.165 35.184,47.711 10.828,16.545 20.726,33.688 29.64,51.338 C -14.812,-36.675 -6.889,-18.535 0,0"
             style="fill:#ffffff;fill-opacity:1;fill-rule:nonzero;stroke:none"
             id="path72"
             inkscape:connector-curvature="0" />
        </g>
      </g>
    </g>
    <g
       transform="matrix(0.38404232,0,0,-0.38404232,-41.881073,1145.0522)"
       id="g74">
      <g
         id="g76">
        <g
           id="g82">
          <g
             id="g84">
            <path
               d="m 180.771,360.887 c -9.001,-17.822 -18.996,-35.132 -29.93,-51.841 l 0,0 c -10.935,-16.707 -14.954,-23.303 -26.64,-37.423 l 0,0 c 18.073,3.06 25.794,3.242 45.73,4.358 l 0,0 c 19.937,1.115 39.925,1.115 59.862,0 l 0,0 c 19.935,-1.116 27.656,-1.297 45.728,-4.357 l 0,0 c -11.687,14.122 -15.703,20.715 -26.639,37.422 l 0,0 c -10.934,16.709 -20.928,34.019 -29.929,51.841 l 0,0 c -9.002,17.824 -12.705,24.604 -19.091,41.785 l 0,0 c -6.386,-17.181 -10.089,-23.961 -19.091,-41.785"
               style="fill:url(#linearGradient86);stroke:none"
               id="path94"
               inkscape:connector-curvature="0" />
          </g>
        </g>
      </g>
    </g>
    <g
       transform="matrix(0.38404232,0,0,-0.38404232,-41.881073,1145.0522)"
       id="g96">
      <g
         id="g98"
         clip-path="url(#clipPath100)">
        <g
           id="g104"
           transform="translate(210.585,331.1064)">
          <path
             d="M 0,0 C 0,3.9 -3.771,6.501 -9.101,6.501 -19.892,6.501 -26.523,-2.6 -28.213,-9.101 -10.401,-9.23 0,-7.541 0,-0.13 L 0,0 Z m 7.151,-43.035 c -6.63,-3.51 -16.252,-5.46 -24.313,-5.46 -18.462,0 -27.953,10.921 -27.953,27.303 0,19.502 15.471,39.134 37.964,39.134 13.132,0 22.363,-6.89 22.363,-18.332 0,-16.253 -18.202,-21.062 -44.985,-20.413 -0.26,-2.34 0.52,-6.371 1.95,-8.711 2.861,-4.55 7.931,-6.631 14.302,-6.631 7.67,0 14.301,1.952 19.112,4.421 l 1.56,-11.311 z"
             style="fill:#ffffff;fill-opacity:1;fill-rule:nonzero;stroke:none"
             id="path106"
             inkscape:connector-curvature="0" />
        </g>
        <g
           id="g108"
           transform="translate(292.3047,284.1709)">
          <path
             d="m 0,0 -5.59,87.63 15.731,0 1.82,-45.114 c 0.391,-11.442 0.391,-19.762 0.391,-26.004 l 0.259,0 c 2.731,6.89 5.461,14.431 10.402,25.744 l 20.152,45.374 18.072,0 1.17,-44.074 c 0.26,-11.443 0.26,-19.763 0,-26.654 l 0.26,0 c 2.99,8.321 6.24,16.903 9.881,25.743 l 20.022,44.985 16.903,0 L 67.478,0 50.186,0 48.495,43.426 c -0.39,10.921 -0.26,17.422 0.26,27.953 l -0.39,0 C 45.245,62.277 42.515,54.217 38.484,44.855 L 17.813,0 0,0 Z"
             style="fill:#6d6f72;fill-opacity:1;fill-rule:nonzero;stroke:none"
             id="path110"
             inkscape:connector-curvature="0" />
        </g>
        <g
           id="g112"
           transform="translate(438.0527,336.0479)">
          <path
             d="m 0,0 c -1.561,0.389 -3.9,0.779 -7.15,0.779 -14.563,0 -26.784,-13.652 -26.784,-28.993 0,-6.631 2.991,-12.481 10.401,-12.481 7.672,0 17.423,8.451 20.543,26.003 L 0,0 Z m -5.98,-51.877 c 0,3.9 0.519,9.492 1.169,15.212 l -0.259,0 c -6.501,-12.352 -15.733,-16.772 -24.833,-16.772 -12.222,0 -20.673,9.492 -20.673,22.623 0,22.493 16.772,43.815 47.586,43.815 7.281,0 15.342,-1.431 20.803,-2.991 l -6.372,-32.114 c -1.95,-10.011 -2.86,-22.101 -2.6,-29.773 l -14.821,0 z"
             style="fill:#6d6f72;fill-opacity:1;fill-rule:nonzero;stroke:none"
             id="path114"
             inkscape:connector-curvature="0" />
        </g>
        <g
           id="g116"
           transform="translate(478.6182,347.4893)">
          <path
             d="m 0,0 6.111,-29.774 c 1.43,-7.151 2.47,-11.962 3.12,-15.992 l 0.26,0 c 1.56,3.51 3.25,7.67 6.501,14.823 L 30.293,0 47.195,0 23.402,-45.376 C 15.212,-61.107 8.061,-72.158 -0.52,-80.74 -8.841,-89.061 -18.592,-92.311 -22.883,-92.832 l -2.99,13.652 c 2.86,0.78 7.671,2.34 11.961,5.461 4.421,3.119 8.451,7.41 11.702,12.871 0.649,1.041 0.52,1.69 0.26,2.991 L -16.642,0 0,0 Z"
             style="fill:#6d6f72;fill-opacity:1;fill-rule:nonzero;stroke:none"
             id="path118"
             inkscape:connector-curvature="0" />
        </g>
        <g
           id="g120"
           transform="translate(387.209,247.1826)">
          <path
             d="m 0,0 c -1.649,-0.746 -4.438,-1.414 -8.051,-1.414 -7.107,0 -12.605,3.849 -12.605,11.781 0,5.42 2.592,9.857 6.636,12.528 2.906,2.001 6.362,3.101 10.564,3.101 3.456,0 5.891,-0.824 6.754,-1.413 l -1.374,-3.77 c -0.983,0.55 -3.142,1.138 -5.891,1.138 -2.827,0 -5.537,-0.863 -7.54,-2.513 -2.434,-1.884 -3.966,-4.948 -3.966,-8.6 0,-4.672 2.749,-8.207 8.679,-8.207 2.238,0 4.516,0.392 6.165,1.178 L 0,0 Z"
             style="fill:#d95b2d;fill-opacity:1;fill-rule:nonzero;stroke:none"
             id="path122"
             inkscape:connector-curvature="0" />
        </g>
        <g
           id="g124"
           transform="translate(397.1455,260.6914)">
          <path
             d="M 0,0 3.063,0 C 6.872,0 9.425,2.042 9.425,4.791 9.425,7.5 7.068,8.442 4.358,8.442 2.984,8.442 2.159,8.325 1.57,8.168 L 0,0 Z m -2.553,11.545 c 1.767,0.433 4.516,0.668 7.069,0.668 2.71,0 5.34,-0.472 7.107,-1.689 1.649,-1.021 2.788,-2.67 2.788,-4.988 0,-3.926 -2.905,-6.4 -6.361,-7.422 l 0,-0.117 c 1.766,-0.668 2.553,-2.553 2.828,-4.869 0.392,-3.338 0.628,-6.441 1.099,-7.579 l -4.949,0 c -0.195,0.589 -0.549,3.063 -0.863,6.283 -0.275,3.377 -1.61,4.595 -4.163,4.595 l -2.67,0 -2.081,-10.878 -4.752,0 4.948,25.996 z"
             style="fill:#d95b2d;fill-opacity:1;fill-rule:nonzero;stroke:none"
             id="path126"
             inkscape:connector-curvature="0" />
        </g>
        <g
           id="g128"
           transform="translate(436.1807,246.2402)">
          <path
             d="m 0,0 1.728,12.409 c 0.431,2.906 1.06,7.029 1.727,10.328 l -0.078,0 C 1.885,19.674 0.195,16.062 -1.453,12.959 l -6.912,-12.646 -3.809,0 -1.649,12.332 c -0.354,3.259 -0.668,6.911 -0.865,10.092 l -0.078,0 c -0.707,-2.984 -1.61,-7.461 -2.317,-10.328 L -20.186,0 l -4.476,0 6.794,26.468 6.597,0 1.65,-11.899 c 0.235,-2.474 0.628,-5.341 0.706,-8.011 l 0.118,0 c 1.061,2.67 2.474,5.576 3.692,7.972 l 6.597,11.938 6.754,0 L 4.751,0 0,0 Z"
             style="fill:#d95b2d;fill-opacity:1;fill-rule:nonzero;stroke:none"
             id="path130"
             inkscape:connector-curvature="0" />
        </g>
      </g>
    </g>
  </g>
</svg>
